HIERARCHY
ROOT Hips
{
  OFFSET 0 0 0
  CHANNELS 6 Xposition Yposition Zposition Zrotation Yrotation Xrotation
  JOINT LeftThigh
  {
    OFFSET 8.409438 0 -5.917753
    CHANNELS 3 Zrotation Yrotation Xrotation
    JOINT LeftLeg
    {
      OFFSET 0 0 -42.358652
      CHANNELS 3 Zrotation Yrotation Xrotation
      JOINT LeftFoot
      {
        OFFSET 0 0 -39.357303
        CHANNELS 3 Zrotation Yrotation Xrotation
      }
    }
  }
  JOINT RightThigh
  {
    OFFSET -8.409438 0 -5.917753
    CHANNELS 3 Zrotation Yrotation Xrotation
    JOINT RightLeg
    {
      OFFSET 0 0 -42.358652
      CHANNELS 3 Zrotation Yrotation Xrotation
      JOINT RightFoot
      {
        OFFSET 0 0 -39.357303
        CHANNELS 3 Zrotation Yrotation Xrotation
      }
    }
  }
  JOINT SpineLow
  {
    OFFSET 0 0 4.719101
    CHANNELS 3 Zrotation Yrotation Xrotation
    JOINT SpineMid
    {
      OFFSET 0 0 12.899191
      CHANNELS 3 Zrotation Yrotation Xrotation
      JOINT Chest
      {
        OFFSET 0 0 12.899191
        CHANNELS 3 Zrotation Yrotation Xrotation
        JOINT LeftShoulder
        {
          OFFSET 7.550562 1.41573 9.438202
          CHANNELS 3 Zrotation Yrotation Xrotation
          JOINT LeftArm
          {
            OFFSET 9.155056 0 4.247191
            CHANNELS 3 Zrotation Yrotation Xrotation
            JOINT LeftForearm
            {
              OFFSET 0 0 25.771955
              CHANNELS 3 Zrotation Yrotation Xrotation
              JOINT LeftHand
              {
                OFFSET 0 0 25.197169
                CHANNELS 3 Zrotation Yrotation Xrotation
              }
            }
          }
        }
        JOINT RightShoulder
        {
          OFFSET -7.550562 1.41573 9.438202
          CHANNELS 3 Zrotation Yrotation Xrotation
          JOINT RightArm
          {
            OFFSET -9.155056 0 4.247191
            CHANNELS 3 Zrotation Yrotation Xrotation
            JOINT RightForearm
            {
              OFFSET 0 0 -25.771955
              CHANNELS 3 Zrotation Yrotation Xrotation
              JOINT RightHand
              {
                OFFSET 0 0 -25.197169
                CHANNELS 3 Zrotation Yrotation Xrotation
              }
            }
          }
        }
        JOINT Neck
        {
          OFFSET 0 0 15.101124
          CHANNELS 3 Zrotation Yrotation Xrotation
          JOINT Head
          {
            OFFSET 0 0 11.325843
            CHANNELS 3 Zrotation Yrotation Xrotation
            End Site
            {
              OFFSET 0 0 14.157303
            }
          }
        }
      }
    }
  }
}
MOTION
Frames: 10
Frame Time: 0.0
0.0  89.887642  0.0  2.33043  20.561716  -87.021863  29.688057  -48.694998  -17.897029  -23.715315  57.642165  25.654496  6.166196  -1.588096  1.755432  -24.822442  4.241127  -53.827528  -5.620016  19.205143  45.919312  4.068466  0.783583  -1.457917  -1.162409  -0.380458  0.139819  -3.179754  -1.032943  0.400394  -3.179755  -1.032943  0.400394  -5.336552  16.507405  5.448302  116.672198  40.876006  -154.625046  -29.070897  -14.9338  65.742602  54.559316  46.839817  -50.853118  7.626386  1.479695  24.78399  30.158977  65.839957  -2.093999  -21.114496  -8.808125  -81.827956  79.491608  29.37516  -10.120791  -19.845359  2.796126  -0.638004  -14.878161  2.120474  -0.387977  
0.0  89.887642  0.0  2.064367  20.203316  -87.146757  28.990957  -48.753127  -17.244629  -23.173322  57.188775  25.686403  6.128543  -1.579692  1.791616  -24.543418  3.934855  -53.456582  -5.605792  18.925289  45.562466  4.169151  0.701099  -1.51537  -1.116672  -0.396334  0.139471  -3.054835  -1.07663  0.399468  -3.054835  -1.07663  0.399468  -5.401614  16.31287  5.634227  117.180502  40.863441  -154.405047  -29.118418  -15.004438  66.043172  54.411391  46.751139  -51.083387  7.422002  1.406992  24.597941  31.809689  66.008154  -0.600822  -21.211361  -8.678447  -81.421009  79.267325  29.400976  -10.272697  -19.890812  2.766219  -0.582797  -14.912585  2.096276  -0.3473  
0.0  89.887642  0.0  1.709272  19.485705  -87.361782  28.370813  -48.833953  -16.425792  -22.480318  56.634989  25.740741  6.139581  -1.483541  1.886944  -24.119866  3.451242  -53.047806  -5.287456  18.512162  45.351001  4.120942  0.621108  -1.623849  -1.098838  -0.411431  0.111336  -3.005715  -1.119278  0.322974  -3.005715  -1.119278  0.322974  -4.983889  16.072345  6.031059  116.602255  40.984484  -154.041619  -30.064553  -15.678053  65.881514  54.26998  46.67108  -51.356809  6.912421  1.273601  24.186211  34.792079  66.210812  1.973462  -20.754353  -8.931801  -81.343417  78.978747  29.488409  -10.43165  -19.635376  2.798507  -0.403411  -14.721759  2.114436  -0.212728  
0.0  89.887642  0.0  1.549656  18.970098  -87.334312  27.680464  -48.714316  -15.67635  -21.911326  56.130832  25.696012  6.119802  -1.487363  1.946778  -23.857847  2.957091  -52.821007  -5.098665  18.315294  45.166457  4.067264  0.638386  -1.762955  -1.046437  -0.412673  0.086462  -2.862055  -1.124015  0.254161  -2.862055  -1.124015  0.254161  -5.057695  15.882738  6.1404  117.314945  40.812111  -153.839655  -30.550312  -15.568363  66.835121  54.532482  46.674252  -51.387073  6.691882  1.056064  23.721211  38.345345  66.36333  5.190899  -20.85892  -9.295794  -80.791919  78.578051  29.687756  -10.620071  -19.645741  2.745875  -0.335403  -14.729978  2.072734  -0.163323  
0.0  89.887642  0.0  1.478386  18.315323  -87.292057  27.363276  -48.48739  -14.881961  -21.836608  55.510063  25.261947  6.04397  -1.419853  2.064669  -23.497903  2.589706  -52.602763  -4.91359  18.323282  45.049588  4.015896  0.494748  -1.831126  -1.029013  -0.381886  0.051472  -2.81373  -1.041439  0.156923  -2.81373  -1.041439  0.156923  -4.955192  15.632506  6.209538  118.281884  40.604812  -153.547908  -31.309909  -15.32023  68.021688  55.360486  46.770835  -51.097486  6.454339  0.645924  23.108471  43.925292  66.489335  10.124802  -21.104678  -9.975289  -80.216733  78.084132  29.922922  -10.787161  -19.39301  2.812154  -0.283396  -14.540531  2.120645  -0.1233  
0.0  89.887642  0.0  1.511697  17.62613  -87.229579  27.277494  -48.192086  -14.211333  -21.756803  54.94163  24.965895  5.891363  -1.369223  2.171539  -23.192685  2.033831  -52.393255  -4.913117  18.972236  44.981561  4.151802  0.470993  -1.961935  -0.961013  -0.332809  0.043457  -2.627581  -0.907807  0.131994  -2.627581  -0.907807  0.131994  -5.387828  15.396284  5.993396  119.568554  40.571999  -153.126621  -32.133523  -14.857909  69.358372  56.542447  46.90384  -50.675861  6.020385  0.100996  22.19279  51.034038  66.282784  16.54615  -21.631304  -10.822773  -79.563249  77.535366  30.026059  -10.833039  -19.354929  2.646071  -0.260578  -14.512488  1.995183  -0.111628  
0.0  89.887642  0.0  1.555277  16.915921  -87.142504  27.535662  -47.86178  -13.648447  -22.020301  54.33924  24.469554  5.793542  -1.358893  2.292154  -22.994917  1.314973  -52.397349  -4.716268  19.676704  45.155174  4.222274  0.531037  -1.975395  -0.966351  -0.26566  -0.003492  -2.641482  -0.726161  0.00107  -2.641482  -0.726161  0.00107  -5.556212  15.064043  5.857426  121.302644  40.634616  -152.406549  -32.875684  -14.323121  70.79477  57.967316  47.060127  -50.136571  5.843732  -0.640218  21.32885  59.528996  65.467613  24.318711  -22.246936  -11.79323  -79.199553  76.962679  29.870983  -10.792829  -18.998154  2.523789  -0.123198  -14.245799  1.89885  -0.013856  
0.0  89.887642  0.0  1.595536  16.143888  -87.073147  27.996827  -47.63896  -13.11889  -22.462424  53.722455  23.830535  5.70627  -1.293327  2.402745  -22.390029  0.958781  -52.575967  -4.824904  20.407397  45.726058  4.168343  0.585433  -2.089819  -0.918656  -0.214934  -0.033984  -2.510813  -0.588693  -0.084716  -2.510813  -0.588693  -0.084716  -6.191044  14.70619  5.601996  123.345979  40.879162  -151.250362  -33.617773  -13.706852  72.374103  59.685582  47.351025  -49.438279  5.575021  -1.034733  20.49725  66.673801  63.976587  31.02473  -22.67368  -12.699877  -79.28002  76.342407  29.503673  -10.79555  -18.82336  2.372106  -0.072907  -14.115217  1.783334  0.018487  
0.0  89.887642  0.0  1.638141  15.166412  -87.112721  28.529574  -47.506202  -12.387279  -22.514465  52.952624  23.489105  5.496658  -1.169149  2.523252  -21.352298  0.910812  -52.876223  -5.132943  21.180371  46.59138  4.525525  0.687864  -2.002356  -0.896403  -0.153181  -0.058431  -2.449887  -0.420803  -0.154014  -2.449887  -0.420803  -0.154015  -6.742629  14.125715  5.386088  125.745127  41.290419  -149.682359  -34.474603  -12.966234  74.206922  61.776522  47.91677  -48.571147  5.184796  -1.309798  19.719793  73.024779  61.957522  36.696826  -22.770795  -13.379346  -79.825895  75.695356  28.95598  -10.941399  -18.424961  2.205812  0.032694  -13.817128  1.655158  0.091182  
0.0  89.887642  0.0  1.740579  14.203607  -87.16729  28.956292  -47.363744  -11.473644  -22.802998  52.123895  22.92778  5.443717  -1.067616  2.585982  -20.087188  1.067335  -53.28062  -5.069028  21.574809  47.890561  4.397953  0.558911  -1.625658  -0.885763  -0.094693  -0.073326  -2.420868  -0.261478  -0.19693  -2.420868  -0.261478  -0.196931  -7.190574  13.584364  5.232667  127.962851  42.042437  -147.764031  -35.356602  -12.246218  76.312102  64.349336  48.895499  -47.506099  4.891232  -1.34974  19.052388  77.53839  59.558893  40.722502  -22.629101  -13.745879  -80.789076  75.160468  28.442504  -11.240684  -18.014784  2.004198  0.157445  -13.510223  1.500053  0.177383  
